<?xml version="1.0" standalone="no"?>
<!DOCTYPE svg PUBLIC "-//W3C//DTD SVG 20010904//EN"
 "http://www.w3.org/TR/2001/REC-SVG-20010904/DTD/svg10.dtd">
<svg version="1.0" xmlns="http://www.w3.org/2000/svg"
 width="499.000000pt" height="499.000000pt" viewBox="0 0 499.000000 499.000000"
 preserveAspectRatio="xMidYMid meet">
<metadata>
Created by potrace 1.14, written by Peter Selinger 2001-2017
</metadata>
<g transform="translate(0.000000,499.000000) scale(0.100000,-0.100000)"
fill="#000000" stroke="none">
<path d="M2451 4972 c-5 -9 -17 -78 -26 -152 -20 -159 -33 -189 -93 -208 -23
-8 -42 -18 -42 -22 0 -5 23 -25 50 -45 53 -39 73 -69 95 -141 13 -44 13 -45
-8 -38 -74 25 -155 18 -190 -14 -28 -25 -49 -70 -42 -91 3 -10 21 -27 40 -37
43 -23 62 -14 88 39 27 53 64 51 57 -3 -3 -27 -41 -98 -54 -103 -15 -6 -95 19
-111 34 -11 11 -26 11 -42 1 -10 -6 -9 -19 2 -56 24 -78 20 -101 -20 -126 -19
-12 -61 -50 -93 -86 -33 -35 -64 -64 -69 -64 -5 0 -10 19 -12 42 -4 69 -46 99
-104 74 -42 -17 -67 -55 -67 -102 0 -46 48 -97 108 -115 60 -18 104 -1 191 71
85 72 94 76 191 79 125 4 127 6 131 134 2 48 8 99 15 114 l12 28 12 -30 c7
-16 14 -64 17 -105 6 -125 10 -138 46 -157 22 -11 54 -16 101 -15 86 2 132
-18 201 -84 50 -48 50 -48 23 -52 -31 -4 -88 -53 -88 -75 0 -9 7 -23 16 -31
12 -13 13 -17 2 -21 -94 -33 -136 -52 -174 -82 l-46 -35 -27 26 c-36 34 -64
33 -95 -5 -33 -38 -33 -63 -1 -101 27 -32 30 -44 16 -52 -5 -3 -21 11 -37 32
-46 62 -116 121 -181 154 -50 24 -79 31 -145 35 -104 6 -158 -8 -203 -53 -40
-39 -46 -81 -17 -107 28 -26 51 -20 73 18 16 27 28 35 48 35 23 0 31 -7 43
-39 24 -60 52 -73 178 -81 74 -5 117 -13 134 -24 51 -33 58 -159 13 -212 -14
-16 -53 -36 -102 -53 -105 -36 -107 -49 -13 -95 135 -65 172 -118 172 -248 1
-77 -1 -89 -23 -112 -51 -54 -126 -42 -156 25 -10 21 -15 42 -12 46 4 3 22 -2
41 -12 29 -16 39 -17 61 -7 48 22 52 82 9 126 -47 46 -128 37 -172 -19 -26
-33 -29 -98 -7 -151 23 -56 -4 -38 -53 37 -50 74 -52 103 -17 209 33 98 32
163 -1 211 -36 53 -27 73 29 64 23 -4 47 -12 54 -17 7 -5 20 -8 30 -6 15 3 17
13 14 88 -1 47 -5 87 -7 89 -2 2 -26 5 -53 7 -28 2 -64 10 -80 19 -17 8 -32
15 -36 15 -3 0 -5 -41 -5 -91 l0 -91 -58 7 c-49 5 -62 3 -82 -13 -29 -24 -21
-38 28 -47 20 -3 43 -10 51 -14 20 -13 16 -73 -8 -112 -15 -25 -21 -51 -21
-99 l-1 -65 -17 50 c-35 102 -104 197 -177 243 -53 34 -133 36 -186 4 -63 -38
-94 -119 -74 -193 7 -26 6 -26 -34 -22 -87 10 -156 -38 -156 -109 0 -34 6 -45
35 -69 54 -45 109 -38 123 16 4 17 5 16 6 -5 2 -44 -44 -124 -95 -168 -29 -25
-114 -74 -204 -118 -85 -42 -182 -92 -215 -112 -152 -91 -270 -214 -337 -349
-31 -63 -33 -74 -33 -168 0 -83 4 -107 21 -140 41 -77 41 -79 -23 -115 -109
-62 -206 -186 -226 -287 -5 -26 -2 -37 15 -53 12 -11 27 -20 34 -20 23 0 24
-17 4 -75 -27 -79 -26 -148 4 -210 28 -59 106 -138 158 -160 94 -39 208 -2
264 86 30 48 31 97 2 134 -20 25 -22 26 -34 10 -7 -9 -10 -23 -7 -31 11 -29
-17 -82 -54 -99 -72 -34 -166 -6 -205 61 -38 65 -26 188 24 241 44 47 76 57
183 58 154 0 169 -9 494 -293 274 -241 358 -296 529 -344 61 -18 104 -22 207
-23 122 0 133 2 180 26 59 31 90 62 82 83 -5 12 -15 12 -66 1 -56 -11 -64 -11
-116 10 -62 25 -118 65 -140 98 -7 12 -17 45 -20 72 -11 94 -15 103 -46 114
-35 12 -38 41 -9 89 27 44 25 97 -6 156 -25 47 -26 59 -10 125 7 31 -24 90
-70 130 -27 24 -39 30 -48 21 -8 -8 -6 -19 7 -41 25 -45 21 -83 -22 -212 -31
-95 -37 -127 -34 -174 11 -162 82 -286 203 -355 40 -23 54 -42 23 -31 -75 26
-294 217 -360 313 -36 53 -99 177 -120 235 -25 72 -34 137 -34 277 0 153 12
202 72 304 62 106 219 247 190 171 -10 -26 9 -57 46 -76 47 -24 112 28 108 85
-5 56 -85 114 -159 114 -55 0 -149 -53 -206 -117 -49 -56 -129 -206 -149 -280
-11 -42 -24 -53 -36 -33 -13 21 -69 27 -117 13 -53 -15 -66 -11 -145 48 -58
44 -73 31 -73 -60 0 -75 -2 -79 -49 -104 -35 -18 -35 -18 -52 4 -41 55 -89
165 -89 204 0 49 38 132 81 180 47 51 138 94 186 88 60 -8 130 -42 163 -80 37
-41 37 -59 5 -89 -29 -26 -31 -53 -10 -94 44 -85 133 -59 160 47 23 87 0 155
-75 229 -102 101 -229 125 -354 66 -79 -37 -91 -39 -56 -11 99 79 266 174 445
252 160 69 248 144 301 255 32 67 36 111 16 173 -17 53 -11 70 18 51 43 -26
123 -5 145 39 21 39 19 66 -6 79 -22 12 -49 -1 -49 -25 0 -7 -7 -16 -16 -19
-34 -13 -81 37 -69 73 7 24 57 45 87 36 33 -10 94 -78 146 -165 77 -128 146
-208 247 -285 106 -81 199 -123 310 -141 22 -3 49 -11 59 -16 25 -14 8 -24
-54 -31 -367 -45 -656 -450 -568 -795 53 -206 169 -357 348 -455 59 -32 165
-70 186 -66 36 6 86 -4 101 -20 16 -17 29 -19 93 -15 l74 4 -46 -48 c-64 -65
-101 -141 -106 -220 -2 -34 -8 -62 -12 -62 -4 0 -10 26 -13 57 -9 84 -57 174
-122 227 -72 58 -130 85 -250 116 l-100 26 -22 54 c-21 53 -57 95 -73 85 -4
-3 -4 -22 0 -42 5 -21 11 -53 13 -70 10 -62 39 -107 87 -131 42 -21 63 -42 42
-42 -15 0 -36 -60 -34 -94 5 -58 55 -102 87 -76 11 9 11 16 3 29 -17 27 -1 69
35 92 45 28 117 20 172 -20 22 -16 41 -36 43 -45 3 -14 0 -14 -30 -2 -18 7
-37 12 -43 11 -5 -2 -22 -6 -37 -9 -76 -17 -65 -150 12 -156 44 -4 56 0 80 20
26 22 37 19 51 -16 24 -64 -48 -195 -135 -245 -121 -69 -252 -72 -407 -9 -102
42 -122 40 -143 -12 -46 -120 -181 -255 -279 -279 -31 -7 -91 -10 -158 -7 -92
5 -116 9 -161 33 -112 58 -177 151 -169 242 1 9 14 11 45 7 37 -5 46 -3 65 17
12 13 24 33 27 45 3 13 16 24 30 27 42 8 125 -3 183 -24 105 -38 157 -47 263
-44 107 2 151 16 146 45 -2 10 -26 18 -73 26 -121 21 -232 80 -330 179 -28 27
-92 105 -144 173 -195 256 -330 332 -466 261 -61 -31 -95 -78 -95 -131 0 -103
86 -154 151 -89 35 36 36 48 4 91 -13 18 -22 37 -19 41 3 5 24 9 47 9 111 0
254 -128 304 -272 31 -91 25 -190 -13 -205 -8 -3 -33 0 -54 7 -36 12 -42 11
-83 -14 -25 -14 -55 -42 -67 -61 -19 -31 -21 -44 -16 -106 4 -40 9 -76 12 -80
3 -5 3 -9 0 -9 -3 0 -15 18 -26 40 -22 43 -30 146 -17 212 16 80 124 118 215
78 37 -17 44 -17 49 -5 8 23 -25 65 -64 82 -110 46 -248 -1 -298 -101 -14 -28
-25 -60 -25 -72 0 -13 -4 -26 -10 -29 -6 -3 -10 2 -10 12 0 20 -58 122 -83
147 -25 25 -85 53 -109 50 -13 -1 -33 -3 -46 -3 -13 -1 -37 -15 -54 -31 -25
-26 -29 -36 -24 -63 3 -18 16 -40 27 -49 46 -38 119 -7 103 44 -14 45 25 -2
82 -98 142 -241 254 -358 429 -447 94 -47 159 -60 305 -61 126 0 139 2 200 28
110 47 202 124 266 223 19 28 38 54 43 57 5 3 42 -6 82 -20 66 -22 87 -25 189
-22 100 3 122 6 173 30 113 53 227 196 227 285 0 20 4 32 10 28 6 -3 10 -22
10 -42 0 -120 181 -301 330 -329 90 -17 278 3 340 36 13 7 23 -3 48 -45 74
-124 239 -235 376 -253 89 -12 232 -6 314 13 196 46 374 199 542 465 29 47 54
87 56 89 1 1 13 -4 26 -13 25 -18 98 -22 98 -6 0 6 6 10 13 10 7 0 21 13 30
30 22 37 14 90 -20 130 -22 26 -22 29 -5 34 16 6 60 66 47 66 -3 0 4 19 16 41
15 31 18 47 11 63 -6 15 -5 28 6 43 9 16 12 34 7 55 -3 18 -8 53 -9 77 -2 36
-9 50 -36 74 -25 22 -34 39 -36 67 -4 52 -38 146 -68 185 -37 48 -106 111
-159 145 -26 16 -47 32 -47 35 0 3 6 16 14 28 21 32 35 122 31 198 -7 125 -76
256 -196 378 -73 73 -151 122 -367 231 -146 74 -194 104 -244 151 -35 33 -58
59 -53 58 36 -5 61 6 96 39 35 32 40 43 42 84 2 79 -37 123 -127 143 l-51 11
-3 45 c-5 84 -57 142 -165 184 l-38 14 28 42 c25 38 28 53 30 134 2 77 -1 98
-21 140 -22 48 -34 64 -95 130 -35 38 -79 75 -89 75 -4 0 -18 9 -32 19 l-25
20 33 31 c56 53 68 119 32 178 -22 35 -74 72 -103 72 -32 0 -83 -30 -97 -55
-7 -14 -17 -25 -22 -25 -5 0 -26 17 -46 38 -21 20 -50 47 -65 59 -31 26 -32
39 -13 103 14 48 11 70 -11 83 -10 6 -12 18 -8 37 11 49 -37 116 -100 140 -44
17 -142 14 -170 -4 -43 -28 -47 -22 -43 65 2 64 7 83 21 90 21 12 22 27 1 50
-14 15 -17 47 -20 177 -1 87 2 165 7 173 6 10 9 10 9 1 0 -34 32 -223 45 -269
14 -49 18 -53 56 -63 53 -14 61 -37 23 -64 -48 -34 -90 -85 -107 -128 l-17
-41 25 23 c14 13 25 27 25 32 0 17 46 70 72 84 15 8 36 26 45 41 17 25 16 26
-9 47 -14 11 -39 28 -56 38 -35 18 -44 45 -61 173 -6 44 -12 90 -15 102 -12
58 -46 81 -65 45z m239 -600 c74 -37 91 -130 28 -156 -47 -20 -83 -4 -102 44
-11 28 -20 38 -31 34 -22 -9 -19 -32 11 -89 15 -28 27 -51 28 -52 3 -4 94 32
102 40 12 12 64 8 64 -5 -1 -7 -7 -40 -15 -73 -8 -33 -15 -63 -15 -67 0 -4 24
-23 53 -43 28 -19 60 -45 69 -58 48 -62 70 -87 77 -83 4 3 6 23 5 45 -2 43 12
62 56 79 53 20 130 -46 130 -110 0 -35 -39 -89 -83 -114 -68 -38 -148 -15
-237 66 -67 62 -91 71 -191 73 -116 3 -121 8 -127 124 -3 48 -10 106 -17 128
-6 22 -13 72 -14 111 -2 57 1 73 16 86 44 40 134 50 193 20z m380 -668 c71
-21 138 -74 189 -149 50 -74 68 -132 65 -209 -6 -138 -106 -223 -212 -180 -58
24 -81 59 -78 120 5 90 112 122 159 46 l16 -27 1 60 c0 108 -63 201 -168 247
-30 14 -72 21 -134 23 -66 2 -94 7 -106 19 -15 14 -14 17 6 36 12 12 22 19 22
16 0 -2 12 -1 28 4 46 14 155 11 212 -6z m-100 -116 c108 -33 169 -150 93
-179 -35 -13 -54 -5 -78 34 -23 37 -58 43 -63 12 -3 -25 -39 -67 -69 -83 -12
-7 -65 -14 -118 -17 -144 -8 -175 -31 -175 -131 0 -69 21 -99 94 -133 35 -17
70 -31 78 -31 24 0 49 -24 43 -41 -3 -9 -37 -30 -75 -48 -88 -40 -143 -94
-165 -161 -35 -106 9 -229 82 -230 25 0 83 45 83 66 0 15 -13 17 -67 14 -67
-3 -85 95 -26 146 47 41 143 24 179 -32 15 -22 20 -50 23 -111 1 -19 19 -16
30 5 6 11 13 39 16 63 3 24 7 53 9 64 2 11 -7 49 -20 85 -30 85 -26 155 10
210 14 22 26 42 26 45 0 11 -62 4 -97 -10 -47 -20 -55 -11 -55 62 0 131 -5
120 56 126 30 3 68 13 85 22 42 21 53 12 45 -38 -9 -64 -7 -119 7 -127 6 -5
26 -4 43 1 61 18 145 -35 96 -61 -11 -6 -20 -8 -20 -5 0 4 -6 3 -12 -2 -7 -4
-19 -8 -26 -9 -47 -7 -49 -53 -6 -134 l27 -52 20 38 c38 75 98 143 152 172 47
26 151 22 196 -6 66 -40 88 -113 63 -201 -6 -21 -5 -23 17 -16 79 25 158 -11
178 -82 21 -73 -66 -157 -129 -123 -31 17 -31 -4 0 -53 41 -65 127 -125 307
-212 191 -92 305 -168 380 -250 164 -179 208 -363 127 -529 l-24 -50 62 -33
c72 -38 126 -88 169 -155 68 -105 71 -208 8 -208 -33 0 -32 2 -18 -39 13 -38
17 -38 44 -4 17 21 27 25 49 19 33 -8 53 -46 38 -72 -7 -13 -5 -27 9 -52 26
-50 12 -74 -44 -70 -34 2 -42 7 -48 28 -7 23 -7 23 -9 -7 -3 -40 -3 -39 -24
-86 -22 -51 -89 -122 -145 -155 -66 -38 -152 -37 -218 4 -98 60 -128 149 -74
215 23 28 37 20 45 -26 11 -61 27 -84 71 -100 163 -63 285 185 149 304 -68 60
-211 76 -306 33 -38 -17 -150 -96 -203 -144 -11 -10 -30 -26 -43 -37 -24 -20
-133 -117 -197 -175 -113 -103 -296 -225 -361 -241 -154 -38 -193 -43 -313
-41 -136 3 -176 14 -223 60 -14 15 -28 40 -32 56 -3 17 -11 30 -17 30 -6 0
-24 9 -40 21 l-29 20 -11 -28 c-8 -21 -8 -40 0 -72 26 -101 120 -183 245 -215
89 -24 140 -15 322 55 71 27 82 23 116 -45 26 -53 93 -142 137 -184 37 -35 53
-29 27 10 -17 26 -18 36 -5 60 10 18 53 18 71 0 14 -14 1 -82 -18 -89 -7 -3
-14 -9 -14 -14 0 -12 75 -49 100 -49 29 0 25 15 -6 16 -14 1 -34 10 -44 19
-19 17 -19 18 1 56 22 45 54 52 84 19 17 -19 20 -19 43 -4 31 20 65 12 82 -21
16 -30 22 -26 25 16 5 56 50 66 86 19 13 -16 32 -30 43 -30 15 0 16 -3 6 -15
-7 -8 -19 -15 -28 -15 -8 0 -23 -6 -31 -13 -41 -34 -153 -47 -187 -22 -34 26
-52 17 -20 -11 23 -21 36 -24 70 -20 63 7 109 18 131 29 11 6 28 11 38 12 19
2 46 32 47 53 0 6 -9 12 -19 12 -20 0 -41 43 -41 83 0 27 38 67 64 67 23 0 66
-37 66 -57 0 -8 -9 -31 -20 -53 -29 -56 -25 -60 15 -15 38 43 53 91 46 145 -1
7 -8 7 -22 0 -40 -22 -81 1 -114 65 -10 17 -20 20 -85 19 -59 -1 -92 -8 -153
-33 -73 -29 -87 -31 -198 -31 -118 0 -177 12 -194 40 -11 17 -1 22 77 37 87
16 183 59 256 115 64 48 94 80 208 224 146 186 225 257 315 289 92 33 193 8
244 -60 23 -29 29 -47 29 -88 0 -105 -79 -155 -160 -102 -35 23 -36 76 -1 112
26 29 17 38 -39 36 -101 -4 -230 -124 -290 -271 -28 -71 -18 -115 18 -79 42
42 145 56 226 30 66 -21 129 -89 138 -148 6 -44 24 -73 24 -39 0 28 43 105 78
140 18 18 51 39 75 47 36 12 49 12 89 0 54 -15 79 -45 80 -94 1 -35 -38 -79
-70 -79 -31 0 -66 25 -72 50 -6 24 -7 24 -31 -15 -14 -22 -43 -69 -64 -105
-53 -90 -136 -201 -195 -259 -93 -92 -241 -178 -345 -199 -16 -4 -97 -6 -180
-6 -139 1 -154 3 -207 27 -112 51 -198 123 -263 221 -21 31 -40 56 -42 56 -3
0 -44 -12 -91 -26 -77 -24 -97 -26 -189 -21 -94 5 -108 9 -174 43 -84 44 -154
110 -189 178 -22 43 -24 60 -24 169 0 111 2 127 26 179 15 32 49 80 76 107 53
53 172 116 238 127 21 3 64 15 94 27 49 20 55 26 65 62 13 52 35 85 57 85 22
0 24 -11 13 -100 -10 -82 -33 -121 -91 -150 -61 -31 -62 -32 -46 -37 20 -7 42
-58 42 -97 0 -58 -78 -116 -106 -78 -9 13 -9 21 3 39 32 48 -33 94 -120 86
-78 -7 -101 -41 -36 -54 83 -18 105 -115 37 -171 l-33 -27 30 -2 c99 -6 142
-1 190 24 88 45 112 82 117 186 2 36 8 47 35 68 39 30 40 36 12 98 -25 57 -21
111 10 151 18 23 21 39 19 105 -1 67 1 82 23 113 31 45 83 76 101 58 9 -9 7
-21 -11 -52 -26 -47 -25 -58 22 -199 36 -110 40 -211 14 -301 -18 -60 -90
-180 -109 -180 -6 0 -9 -2 -6 -5 9 -9 89 50 139 102 39 40 66 73 147 178 22
28 85 166 104 229 19 61 22 94 22 231 0 141 -3 166 -22 213 -12 29 -30 65 -40
80 -11 15 -31 45 -45 68 -35 52 -106 124 -124 124 -7 0 -13 -9 -13 -20 0 -29
-44 -70 -75 -70 -60 0 -110 50 -100 100 25 124 210 148 333 44 41 -34 142
-167 142 -186 0 -8 7 -23 16 -34 8 -10 13 -13 9 -7 -3 7 -6 44 -7 82 -1 58 3
76 25 114 60 102 214 176 326 155 102 -18 54 21 -153 125 -85 42 -160 77 -168
77 -14 0 -152 83 -174 104 -6 7 -25 23 -41 37 -77 66 -123 227 -86 302 19 37
12 43 -35 29 -102 -31 -198 81 -115 135 21 14 26 14 34 2 5 -8 9 -19 9 -25 0
-6 6 -17 14 -23 23 -19 71 28 63 61 -11 44 -78 51 -119 13 -26 -24 -88 -108
-88 -119 0 -10 -72 -120 -99 -151 -61 -70 -145 -146 -212 -191 -101 -67 -177
-95 -272 -102 l-79 -5 6 59 c7 67 7 49 0 295 -5 186 -5 186 19 214 l24 29 -24
35 c-23 34 -24 42 -21 172 2 113 6 140 21 156 22 25 22 33 -3 33 -18 0 -20 7
-20 54 0 30 4 57 9 60 17 11 44 -22 45 -55 l1 -34 78 62 c43 35 82 63 87 63 5
0 21 5 37 12 15 6 34 12 41 14 8 1 16 4 18 6 9 9 141 6 174 -4z m151 -55 c21
-24 69 -114 69 -130 0 -15 -5 -15 -48 -7 -30 6 -31 7 -25 53 5 40 2 51 -21 78
-14 17 -26 34 -26 37 0 10 33 -10 51 -31z m-918 -44 c40 -21 59 -42 45 -50
-13 -8 -108 38 -108 53 0 12 38 10 63 -3z m814 -109 c12 0 13 -6 7 -27 -5 -16
-9 -55 -9 -88 l-1 -60 -41 -3 -41 -3 4 66 c2 36 -1 77 -7 91 -6 19 -6 37 3 61
l13 35 28 -36 c16 -20 36 -36 44 -36z m-312 -139 c-1 -48 -5 -93 -9 -99 -4 -7
-2 -21 4 -32 11 -20 10 -20 -26 -5 -20 8 -38 15 -40 15 -2 0 -15 17 -29 37
-26 39 -32 90 -15 123 13 25 58 49 91 50 l26 0 -2 -89z m-575 -16 c0 -8 -4
-15 -10 -15 -5 0 -10 7 -10 15 0 8 5 15 10 15 6 0 10 -7 10 -15z m988 -133
c-14 -15 -41 -49 -61 -75 l-36 -49 -21 34 c-11 18 -20 36 -20 39 0 11 23 26
50 33 46 13 70 29 70 48 0 16 3 17 21 7 l21 -11 -24 -26z m-288 22 c0 -18 -23
-44 -40 -44 -31 0 -33 18 -3 34 30 16 43 19 43 10z m-352 -77 l22 -23 -26 -25
c-25 -24 -26 -24 -40 -5 -17 24 -17 31 -4 57 14 25 22 24 48 -4z m-421 -64
c-6 -47 -39 -143 -49 -143 -14 0 -9 38 12 90 11 28 20 60 20 70 0 11 5 20 11
20 7 0 9 -14 6 -37z m1254 7 c16 -9 17 -14 8 -32 -11 -21 -12 -21 -25 -3 -14
19 -19 45 -8 45 3 0 14 -5 25 -10z m-511 -25 c0 -34 -1 -30 15 -76 8 -23 15
-57 15 -76 l0 -35 -37 32 c-72 63 -138 71 -199 25 -42 -32 -48 -31 -29 4 20
39 88 94 155 125 69 32 80 32 80 1z m393 -109 c19 -28 75 -56 115 -56 l29 0 0
-70 c0 -59 6 -81 32 -134 29 -60 84 -126 145 -173 l26 -21 -25 -50 c-28 -56
-85 -111 -140 -138 -33 -15 -36 -21 -33 -49 3 -29 1 -32 -25 -33 -34 -1 -94
-20 -124 -40 -27 -17 -24 -29 -28 153 -1 85 2 122 17 164 41 121 18 137 -108
75 -70 -34 -105 -45 -159 -50 -39 -3 -81 -2 -94 3 -39 15 -73 4 -85 -28 -9
-24 -14 -28 -39 -23 -17 2 -41 11 -56 19 -25 14 -25 14 -4 15 68 1 270 127
359 223 74 80 164 201 164 221 0 23 15 19 33 -8z m-557 -216 c8 0 14 -4 14
-10 0 -13 -36 -13 -60 0 -11 6 -25 20 -31 32 l-12 21 37 -21 c21 -12 44 -22
52 -22z m539 -149 c3 -5 -4 -34 -15 -65 -18 -46 -21 -79 -22 -199 0 -79 -4
-150 -10 -158 -7 -11 -17 -4 -46 31 -70 86 -167 176 -240 223 -67 44 -92 70
-79 83 2 3 48 5 101 6 95 0 154 13 209 44 83 47 92 50 102 35z m-547 -112 c73
-17 200 -83 268 -138 106 -86 201 -234 234 -366 20 -80 20 -196 -1 -290 -44
-203 -176 -370 -362 -459 -51 -24 -110 -47 -132 -51 -22 -4 -49 -9 -60 -11
-11 -2 -37 -5 -57 -7 l-38 -4 -2 221 -3 221 -200 1 c-110 1 -208 2 -217 3 -14
1 -18 10 -18 39 0 40 -27 171 -60 291 -29 106 -28 107 30 74 89 -52 139 -91
164 -131 14 -22 37 -44 53 -49 58 -20 143 9 151 52 2 10 -5 30 -16 44 l-20 27
63 52 c35 29 67 52 70 52 4 0 5 -60 3 -134 -3 -123 -5 -136 -25 -158 -28 -30
-28 -36 -2 -64 11 -12 23 -40 26 -61 l5 -40 214 1 214 0 1 41 c1 57 6 97 30
210 26 119 32 165 25 165 -18 0 -164 -104 -176 -126 -26 -46 -66 -69 -120 -69
-40 0 -54 5 -79 29 -36 35 -39 56 -11 81 20 18 20 18 -3 37 -12 11 -39 35 -59
54 l-38 35 0 225 0 225 50 -5 c28 -3 72 -11 98 -17z m1010 -55 c43 -38 91 -64
119 -64 31 0 73 -18 73 -31 0 -13 -40 -48 -56 -49 -22 0 -92 -71 -107 -107 -8
-21 -24 -46 -35 -56 -19 -17 -21 -17 -63 33 -35 41 -54 54 -99 67 -120 34
-132 56 -54 93 43 21 114 93 114 115 0 6 9 21 21 34 23 25 16 27 87 -35z m92
-9 c38 -21 41 -24 20 -24 -14 -1 -43 10 -65 24 -54 33 -17 33 45 0z m160 -136
c-44 -11 -97 -34 -127 -54 -29 -19 -55 -35 -58 -35 -16 0 14 26 76 66 44 28
69 50 69 62 0 31 10 32 63 5 l51 -25 -74 -19z m-340 -149 c17 -22 43 -43 56
-46 26 -7 28 -12 15 -33 -7 -11 -14 -8 -32 14 -13 16 -49 53 -79 83 -46 45
-50 51 -24 38 18 -8 46 -34 64 -56z m-411 -2 c0 -7 -4 -22 -9 -33 -7 -19 -9
-18 -19 8 -14 37 -14 37 9 37 11 0 20 -6 19 -12z m281 -150 c57 -71 117 -184
124 -234 6 -37 6 -38 -5 -9 -38 106 -142 255 -178 255 -15 0 -22 16 -15 35 10
24 24 14 74 -47z m-210 -5 c30 -13 52 -32 64 -56 19 -34 19 -37 1 -122 -17
-83 -21 -122 -13 -155 2 -9 -5 -16 -17 -16 -11 -1 -25 -2 -32 -3 -22 -2 -74
-53 -94 -92 -21 -42 -27 -90 -15 -127 7 -21 6 -23 -12 -13 -12 6 -30 11 -41
11 -27 0 -26 4 4 43 31 41 78 153 100 237 14 51 16 90 11 183 -3 65 -8 123
-12 129 -4 6 -3 9 2 6 5 -2 29 -13 54 -25z m146 -9 c38 -18 89 -83 127 -162
24 -49 29 -64 42 -132 7 -33 7 -208 0 -240 -3 -14 -8 -38 -9 -55 -4 -34 -61
-170 -101 -242 -29 -51 -60 -83 -81 -83 -25 0 -23 17 11 82 41 78 46 98 51
207 l4 84 -56 110 c-65 127 -71 164 -42 266 23 84 23 103 -3 132 -19 22 -19
24 -3 36 22 16 19 16 60 -3z m-830 -219 c7 -28 -11 -65 -31 -65 -15 0 -21 53
-9 84 8 20 33 9 40 -19z m-1279 -121 c1 -124 33 -277 77 -375 56 -128 174
-291 277 -383 58 -53 53 -60 -12 -16 -70 46 -319 271 -319 287 0 3 12 17 26
30 21 19 24 26 14 38 -18 21 -48 18 -55 -5 -10 -31 -26 -25 -96 36 -161 141
-300 215 -409 219 -84 4 -144 -15 -225 -70 -36 -25 -70 -45 -75 -45 -15 0 43
109 77 145 15 17 49 45 76 63 50 35 174 85 189 76 4 -3 5 -22 2 -43 -8 -51 6
-57 46 -21 57 51 77 44 195 -70 110 -106 137 -118 157 -75 10 22 6 37 -29 110
-36 74 -40 90 -32 123 10 45 61 95 92 90 21 -3 22 -8 24 -114z m-187 -17 c0
-4 -9 -3 -20 3 -11 6 -20 15 -20 20 0 6 9 5 20 -2 11 -7 20 -16 20 -21z m2276
-113 c36 -75 37 -76 31 -172 -3 -53 -11 -115 -19 -137 l-15 -40 -11 65 c-7 36
-28 113 -47 172 l-35 107 23 44 c12 24 25 42 29 40 4 -2 24 -38 44 -79z m-368
-195 c-8 -25 -68 -72 -68 -54 0 3 -9 1 -20 -5 -32 -17 -23 3 13 27 17 13 41
34 52 47 26 31 37 24 23 -15z m-1209 -46 c6 -38 1 -120 -8 -144 -9 -22 -10
-21 -12 16 -2 43 -2 87 0 123 1 26 16 30 20 5z m2165 -85 c-10 -12 -25 -29
-33 -37 -7 -8 -50 -62 -94 -120 -115 -150 -207 -239 -291 -281 -37 -19 -73
-35 -80 -37 -6 -2 -42 -9 -81 -17 -38 -9 -118 -35 -177 -60 -132 -55 -152 -59
-254 -58 -91 2 -117 9 -187 54 -54 35 -92 92 -102 156 -7 42 -6 43 14 33 11
-6 27 -26 36 -44 23 -47 105 -104 173 -118 81 -17 237 -5 357 26 101 26 187
67 260 124 22 17 53 41 70 54 36 27 162 134 191 162 11 11 47 43 80 70 32 28
74 65 94 82 41 38 51 42 24 11z m-838 -33 c17 -26 12 -45 -11 -45 -12 0 -46
-49 -45 -65 0 -3 0 -25 0 -49 0 -84 -72 -147 -175 -152 l-52 -3 5 44 c6 60 -4
93 -40 127 l-30 28 37 0 c63 0 96 -35 64 -67 -15 -15 -2 -51 23 -64 28 -15 61
-4 97 32 26 26 31 38 30 77 0 26 -4 56 -9 67 -6 16 0 27 33 57 23 21 45 38 49
38 4 0 15 -11 24 -25z m1114 7 c0 -19 -23 -32 -37 -21 -20 17 -15 29 12 29 14
0 25 -4 25 -8z m-139 -80 c-15 -29 6 -119 35 -142 23 -20 17 -25 -39 -27 -29
0 -70 -8 -91 -17 -22 -9 -41 -14 -44 -12 -14 15 56 139 112 200 29 31 44 30
27 -2z m597 -4 c19 -19 14 -56 -9 -68 -11 -6 -19 -19 -18 -28 3 -39 -2 -53
-26 -64 -19 -8 -28 -8 -40 2 -21 18 -19 57 5 72 16 10 18 20 13 55 l-6 43 35
0 c19 0 39 -5 46 -12z m-443 -47 c25 -28 26 -32 8 -22 -21 11 -43 40 -43 57 0
4 1 5 3 3 1 -2 16 -19 32 -38z m-902 -7 c-4 -10 -9 -12 -15 -6 -12 12 -1 35
12 27 5 -3 6 -13 3 -21z m-1498 -42 c-3 -3 5 -20 16 -39 30 -48 8 -41 -24 9
-33 51 -37 80 -7 53 11 -10 18 -20 15 -23z m2715 -52 c8 -15 8 -20 -2 -21 -7
-1 -23 -3 -35 -4 -21 -2 -21 -1 -6 21 19 29 29 30 43 4z m-3360 -102 c0 -18
-2 -20 -9 -8 -6 8 -7 18 -5 22 9 14 14 9 14 -14z m3180 0 c0 -6 -10 -22 -22
-35 l-21 -23 -24 32 c-12 18 -23 33 -23 35 0 2 20 3 45 3 28 0 45 -4 45 -12z
m-480 -208 c24 -24 25 -43 4 -61 -8 -7 -24 -30 -35 -51 -14 -28 -26 -38 -43
-38 -14 0 -32 -7 -41 -16 -9 -9 -24 -14 -36 -11 -11 3 -34 1 -51 -5 -23 -8
-36 -8 -49 1 -10 6 -28 11 -40 11 -11 0 -32 9 -46 20 -34 26 -77 26 -103 -2
-11 -12 -20 -26 -20 -31 0 -26 -85 80 -92 115 -2 9 26 13 118 14 133 1 186 8
218 29 26 17 118 41 163 43 21 1 41 -6 53 -18z m145 -90 c3 -5 1 -10 -4 -10
-6 0 -11 5 -11 10 0 6 2 10 4 10 3 0 8 -4 11 -10z"/>
<path d="M2745 3470 c-16 -11 -23 -20 -15 -20 17 0 71 39 55 40 -5 0 -23 -9
-40 -20z"/>
<path d="M2806 3242 c-2 -4 -1 -14 4 -21 10 -17 31 -5 23 14 -6 16 -19 20 -27
7z"/>
<path d="M3000 2869 c0 -5 5 -7 10 -4 6 3 10 8 10 11 0 2 -4 4 -10 4 -5 0 -10
-5 -10 -11z"/>
<path d="M3935 2020 c-16 -4 -41 -12 -53 -19 -33 -17 -102 -81 -102 -93 0 -6
13 -25 29 -44 16 -18 28 -41 26 -51 -2 -10 -4 -24 -4 -31 -1 -16 -47 -56 -74
-63 -12 -3 -37 0 -56 7 -30 13 -33 12 -26 -4 3 -9 9 -29 12 -44 l5 -28 26 20
c28 22 76 26 132 9 35 -11 40 -9 105 36 85 58 96 52 99 -54 l3 -71 38 -20 c22
-11 40 -20 42 -20 1 0 23 39 49 86 37 67 46 95 46 130 -3 147 -162 283 -297
254z m141 -48 c50 -25 99 -84 119 -142 21 -59 19 -85 -10 -144 -51 -105 -87
-123 -99 -49 -17 101 -17 102 18 118 58 28 69 92 24 142 -16 17 -29 21 -61 18
-22 -2 -47 -10 -54 -18 -18 -18 -33 -81 -23 -97 9 -15 -19 -47 -73 -84 -32
-21 -42 -23 -63 -14 -28 13 -29 19 -8 60 20 39 13 92 -18 125 l-23 25 39 34
c73 63 144 71 232 26z m42 -95 c32 -25 -2 -107 -46 -107 -27 0 -62 37 -62 65
0 37 34 67 68 59 15 -4 33 -11 40 -17z"/>
<path d="M3705 1522 c-1 -120 -5 -153 -35 -266 -12 -43 -19 -81 -16 -84 11
-10 45 44 46 70 0 18 9 33 25 44 17 11 25 24 23 43 -1 14 13 53 30 85 51 94
41 173 -24 201 -20 8 -39 15 -43 15 -3 0 -6 -48 -6 -108z m69 52 c9 -8 16 -31
16 -50 0 -33 -34 -119 -51 -130 -10 -6 -12 179 -2 189 10 11 20 8 37 -9z"/>
<path d="M4155 1499 c14 -44 14 -67 0 -79 -11 -10 -19 -7 -38 14 -30 32 -66
46 -93 36 -12 -5 -64 -51 -116 -104 -53 -53 -101 -96 -107 -96 -6 0 -11 -11
-11 -25 0 -15 -9 -31 -23 -40 -18 -11 -23 -22 -19 -43 3 -22 -1 -30 -22 -40
-26 -12 -34 -36 -17 -47 6 -3 23 7 39 22 118 114 274 217 367 241 129 34 235
11 336 -76 22 -19 42 -33 44 -30 2 2 -6 26 -19 53 -39 83 -134 160 -259 208
-63 24 -68 24 -62 6z m118 -55 c47 -24 142 -95 159 -119 12 -17 1 -17 -24 -1
-53 34 -132 54 -210 51 -61 -3 -90 -10 -149 -38 -88 -40 -177 -96 -230 -144
-21 -19 -39 -32 -39 -28 0 17 46 82 84 120 23 22 55 56 71 75 47 54 94 90 119
90 13 0 31 -12 44 -30 13 -16 31 -30 42 -30 26 0 50 27 50 56 0 31 17 31 83
-2z"/>
<path d="M3186 1083 c23 -124 22 -123 21 -49 -1 45 -6 71 -14 74 -9 2 -11 -5
-7 -25z"/>
<path d="M3595 1063 c-17 -35 -139 -214 -167 -245 -92 -99 10 -19 147 115 64
64 95 101 87 104 -8 3 -22 18 -31 35 l-18 29 -18 -38z m26 -51 c-11 -21 -51
-58 -51 -48 0 5 9 21 21 37 22 32 46 41 30 11z"/>
<path d="M3137 843 c-4 -3 -7 -11 -7 -17 0 -6 5 -5 12 2 6 6 9 14 7 17 -3 3
-9 2 -12 -2z"/>
<path d="M3084 684 c-18 -14 -18 -15 4 -4 12 6 22 13 22 15 0 8 -5 6 -26 -11z"/>
<path d="M3953 657 c-45 -17 -59 -32 -45 -50 10 -11 21 -12 57 -4 39 9 51 8
88 -11 53 -27 71 -46 87 -94 6 -21 16 -38 21 -38 16 0 10 103 -9 139 -31 62
-119 87 -199 58z m137 -28 c36 -21 71 -69 50 -69 -6 0 -10 4 -10 9 0 5 -32 26
-71 45 -65 33 -69 36 -39 36 18 0 49 -10 70 -21z"/>
<path d="M2995 2321 c-3 -6 4 -15 15 -21 20 -11 21 -10 10 9 -12 23 -16 25
-25 12z"/>
<path d="M3567 2204 c-10 -13 -14 -24 -8 -24 5 0 12 6 14 13 4 9 8 9 16 -3 5
-8 7 -18 5 -22 -8 -13 6 -9 22 6 18 18 18 26 -1 26 -7 0 -18 6 -22 14 -6 11
-12 9 -26 -10z"/>
<path d="M3418 1594 c-12 -11 -10 -52 3 -59 17 -11 23 3 13 36 -5 17 -12 27
-16 23z"/>
<path d="M1194 1280 c-31 -12 -38 -40 -16 -63 39 -38 89 11 54 52 -13 14 -23
17 -38 11z"/>
<path d="M1220 1180 c-28 -28 -11 -50 37 -50 29 0 34 3 31 21 -2 12 -13 28
-25 36 -19 13 -24 12 -43 -7z"/>
<path d="M1914 3710 c-96 -21 -200 -109 -254 -214 -79 -156 -7 -340 133 -338
98 2 154 134 80 192 -34 27 -65 25 -93 -5 -41 -44 -53 -34 -48 38 6 74 32 128
85 178 54 52 90 67 174 74 134 11 159 16 159 35 0 32 -153 58 -236 40z"/>
<path d="M1780 2468 c0 -7 7 -33 16 -57 11 -31 15 -84 15 -185 0 -78 4 -147 8
-155 11 -17 14 -14 75 64 53 67 94 104 199 177 48 34 87 66 87 70 0 9 0 9 -90
13 -125 7 -171 16 -236 51 -72 38 -74 39 -74 22z m159 -162 c-26 -27 -39 -25
-39 5 0 15 7 19 31 19 l31 0 -23 -24z"/>
<path d="M1341 2329 c-57 -54 -102 -79 -141 -79 -21 0 -47 -8 -60 -18 l-22
-17 69 -46 c52 -34 75 -57 98 -99 36 -64 64 -75 85 -35 20 38 59 63 137 88 37
12 68 27 71 34 2 7 -16 22 -40 34 -59 29 -95 65 -124 122 -13 26 -28 47 -33
47 -4 0 -23 -14 -40 -31z m53 -127 c13 -26 12 -28 -18 -43 -30 -15 -32 -15
-54 12 l-23 28 25 7 c13 3 27 12 30 21 7 18 22 9 40 -25z"/>
<path d="M833 1864 c-15 -24 -15 -29 -2 -53 9 -16 25 -27 42 -29 55 -7 81 45
42 84 -31 31 -60 30 -82 -2z"/>
<path d="M1584 1841 c-34 -21 -94 -105 -125 -178 -38 -90 -46 -309 -14 -423
23 -79 100 -231 134 -264 49 -47 54 -27 14 54 -35 70 -37 82 -41 185 l-4 110
60 117 60 118 -14 67 c-27 130 -29 171 -9 193 35 38 -8 53 -61 21z m-40 -221
c3 -14 8 -35 12 -47 4 -14 2 -23 -5 -23 -5 0 -17 -12 -25 -27 l-15 -28 -1 40
c0 39 18 120 25 113 2 -2 6 -15 9 -28z"/>
<path d="M311 1163 c-30 -20 -23 -54 13 -71 24 -12 30 -12 43 1 19 19 11 58
-15 74 -16 9 -24 8 -41 -4z"/>
<path d="M285 1050 c-9 -10 -15 -26 -12 -34 7 -18 50 -31 72 -22 22 8 19 53
-4 66 -27 14 -35 13 -56 -10z"/>
<path d="M299 941 c-27 -22 -20 -46 16 -55 32 -8 57 9 53 37 -5 30 -42 40 -69
18z"/>
<path d="M331 851 c-22 -14 -6 -61 22 -61 26 0 49 32 41 55 -7 16 -41 20 -63
6z"/>
<path d="M989 397 c-32 -25 -33 -55 0 -87 40 -41 68 -39 86 5 29 68 -30 124
-86 82z"/>
<path d="M1439 328 c-10 -32 4 -88 21 -88 4 0 19 11 35 26 26 24 26 26 10 45
-15 15 -62 27 -66 17z"/>
<path d="M1115 300 c-23 -37 -8 -90 25 -90 36 0 57 81 24 94 -23 9 -42 7 -49
-4z"/>
<path d="M1340 274 c-10 -11 -11 -23 -4 -42 8 -22 16 -27 44 -27 41 0 51 22
26 60 -19 28 -47 32 -66 9z"/>
<path d="M1220 259 c-20 -36 -9 -64 26 -67 38 -4 65 19 59 50 -8 41 -66 53
-85 17z"/>
</g>
</svg>
